<?xml version="1.0" encoding="iso-8859-1"?>
<!-- Generator: Adobe Illustrator 19.0.0, SVG Export Plug-In . SVG Version: 6.00 Build 0)  -->
<svg version="1.1" id="Layer_1" xmlns="http://www.w3.org/2000/svg" xmlns:xlink="http://www.w3.org/1999/xlink" x="0px" y="0px"
	 viewBox="0 0 495 495" style="enable-background:new 0 0 495 495;" xml:space="preserve">
<g>
	<polygon style="fill:#1ddfe9;" points="227.5,0 227.5,50.11 202.642,25.252 174.358,53.536 227.5,106.678 227.5,212.859 
		135.545,159.769 116.093,87.175 77.457,97.528 86.555,131.484 43.159,106.429 23.159,141.071 66.555,166.125 32.599,175.224 
		42.951,213.861 115.545,194.41 207.5,247.5 115.545,300.59 42.951,281.139 32.599,319.776 66.555,328.875 23.159,353.929 
		43.159,388.571 86.555,363.516 77.457,397.472 116.093,407.825 135.545,335.231 227.5,282.141 227.5,388.322 174.358,441.464 
		202.642,469.748 227.5,444.89 227.5,495 247.5,495 247.5,0 	"/>
	<polygon style="fill:#00adb5;" points="462.401,319.776 452.049,281.139 379.455,300.59 287.5,247.5 379.455,194.41 
		452.049,213.861 462.401,175.224 428.445,166.125 471.841,141.071 451.841,106.429 408.445,131.484 417.543,97.528 378.907,87.175 
		359.455,159.769 267.5,212.859 267.5,106.678 320.642,53.536 292.358,25.252 267.5,50.11 267.5,0 247.5,0 247.5,495 267.5,495 
		267.5,444.89 292.358,469.748 320.642,441.464 267.5,388.322 267.5,282.141 359.455,335.231 378.907,407.825 417.543,397.472 
		408.445,363.516 451.841,388.571 471.841,353.929 428.445,328.875 	"/>
</g>
<g>
</g>
<g>
</g>
<g>
</g>
<g>
</g>
<g>
</g>
<g>
</g>
<g>
</g>
<g>
</g>
<g>
</g>
<g>
</g>
<g>
</g>
<g>
</g>
<g>
</g>
<g>
</g>
<g>
</g>
</svg>
